<svg xmlns="http://www.w3.org/2000/svg" width="1600" height="900" viewBox="0 0 1600 900">
  <defs>
    <linearGradient id="bg" x1="0" y1="0" x2="1" y2="1">
      <stop offset="0%" stop-color="#0b132b"/>
      <stop offset="100%" stop-color="#1c2541"/>
    </linearGradient>
  </defs>
  <rect width="1600" height="900" fill="url(#bg)"/>
  <rect x="40" y="30" width="1520" height="840" rx="20" fill="#ffffff"/>
  <rect x="40" y="30" width="1520" height="70" rx="20" fill="#1f2937"/>
  <text x="80" y="75" font-family="Segoe UI, Arial" font-size="28" fill="#f9fafb" font-weight="700">MeinPortfolio – Dividenden Tracking</text>

  <rect x="80" y="130" width="700" height="220" rx="16" fill="#f0fdf4" stroke="#bbf7d0"/>
  <text x="110" y="180" font-family="Segoe UI, Arial" font-size="24" fill="#0f172a" font-weight="700">Erhaltene Dividenden (YTD)</text>
  <text x="110" y="255" font-family="Segoe UI, Arial" font-size="56" fill="#166534" font-weight="800">€ 2.438,15</text>
  <text x="110" y="305" font-family="Segoe UI, Arial" font-size="22" fill="#166534">+18,2% gegenüber Vorjahr</text>

  <rect x="820" y="130" width="700" height="220" rx="16" fill="#eff6ff" stroke="#bfdbfe"/>
  <text x="850" y="180" font-family="Segoe UI, Arial" font-size="24" fill="#0f172a" font-weight="700">Nächste Zahlung</text>
  <text x="850" y="255" font-family="Segoe UI, Arial" font-size="44" fill="#1d4ed8" font-weight="800">Coca-Cola · 12.03.2026</text>
  <text x="850" y="305" font-family="Segoe UI, Arial" font-size="22" fill="#1e40af">Erwartet: € 86,40</text>

  <rect x="80" y="380" width="1440" height="440" rx="16" fill="#f8fafc" stroke="#e2e8f0"/>
  <text x="110" y="425" font-family="Segoe UI, Arial" font-size="24" fill="#0f172a" font-weight="700">Letzte Dividenden</text>

  <rect x="110" y="455" width="1380" height="52" rx="10" fill="#e2e8f0"/>
  <text x="130" y="488" font-family="Segoe UI, Arial" font-size="20" fill="#334155">Asset</text>
  <text x="520" y="488" font-family="Segoe UI, Arial" font-size="20" fill="#334155">Datum</text>
  <text x="760" y="488" font-family="Segoe UI, Arial" font-size="20" fill="#334155">Brutto</text>
  <text x="980" y="488" font-family="Segoe UI, Arial" font-size="20" fill="#334155">Steuer</text>
  <text x="1220" y="488" font-family="Segoe UI, Arial" font-size="20" fill="#334155">Netto</text>

  <g font-family="Segoe UI, Arial" font-size="20" fill="#0f172a">
    <rect x="110" y="520" width="1380" height="52" rx="10" fill="#ffffff"/>
    <text x="130" y="553">Johnson &amp; Johnson</text><text x="520" y="553">05.02.2026</text><text x="760" y="553">€ 132,00</text><text x="980" y="553">€ 19,80</text><text x="1220" y="553" fill="#166534">€ 112,20</text>
    <rect x="110" y="580" width="1380" height="52" rx="10" fill="#ffffff"/>
    <text x="130" y="613">Coca-Cola</text><text x="520" y="613">20.01.2026</text><text x="760" y="613">€ 98,00</text><text x="980" y="613">€ 14,70</text><text x="1220" y="613" fill="#166534">€ 83,30</text>
    <rect x="110" y="640" width="1380" height="52" rx="10" fill="#ffffff"/>
    <text x="130" y="673">Vanguard FTSE All-World</text><text x="520" y="673">03.01.2026</text><text x="760" y="673">€ 211,50</text><text x="980" y="673">€ 31,73</text><text x="1220" y="673" fill="#166534">€ 179,77</text>
  </g>
</svg>
